HIERARCHY
ROOT Hips
{
	OFFSET 0.000000 0.000000 0.000000
	CHANNELS 6 Xposition Yposition Zposition Zrotation Yrotation Xrotation 
	JOINT LHipJoint
	{
		OFFSET 0.000000 0.000000 0.000000
		CHANNELS 3 Zrotation Yrotation Xrotation
		JOINT LeftUpLeg
		{
			OFFSET 1.363060 -1.794630 0.839290
			CHANNELS 3 Zrotation Yrotation Xrotation
			JOINT LeftLeg
			{
				OFFSET 2.448110 -6.726130 0.000000
				CHANNELS 3 Zrotation Yrotation Xrotation
				JOINT LeftFoot
				{
					OFFSET 2.562200 -7.039590 0.000000
					CHANNELS 3 Zrotation Yrotation Xrotation
					JOINT LeftToeBase
					{
						OFFSET 0.157640 -0.433110 2.322550
						CHANNELS 3 Zrotation Yrotation Xrotation
						End Site
						{
							OFFSET 0.000000 0.000000 0.000000
						}
					}
				}
			}
		}
	}
	JOINT RHipJoint
	{
		OFFSET 0.000000 0.000000 0.000000
		CHANNELS 3 Zrotation Yrotation Xrotation
		JOINT RightUpLeg
		{
			OFFSET -1.305520 -1.794630 0.839290
			CHANNELS 3 Zrotation Yrotation Xrotation
			JOINT RightLeg
			{
				OFFSET -2.542530 -6.985550 0.000000
				CHANNELS 3 Zrotation Yrotation Xrotation
				JOINT RightFoot
				{
					OFFSET -2.568260 -7.056230 0.000000
					CHANNELS 3 Zrotation Yrotation Xrotation
					JOINT RightToeBase
					{
						OFFSET -0.164730 -0.452590 2.363150
						CHANNELS 3 Zrotation Yrotation Xrotation
						End Site
						{
							OFFSET 0.000000 0.000000 0.000000
						}
					}
				}
			}
		}
	}
}
MOTION
Frames: 30
Frame Time: 0.008333
1.248405 16.535897 -1.273031 14.352119 80.622744 22.048781 -12.497512 6.101826 0.512915 -1.401027 15.273798 -3.509493 -0.348346 2.620450 42.534024 0.726972 -11.787255 22.801029 -5.923600 -0.000000 -80.665300 7.680051 -0.927148 3.398718 17.795219 2.401766 -38.236822 1.836793 -1.225579 30.897202 -3.490321 -12.147746 -13.922675 -179.487700 0.000000 -3.647700
1.380423 16.489337 -1.232757 11.435053 80.558903 18.994919 -12.527561 5.960712 0.364457 -0.568742 15.341548 -4.827171 -0.178832 2.779617 45.747291 0.839047 -10.827465 23.184451 -5.626999 0.000000 -77.025500 7.712794 -0.905768 3.250566 18.350587 2.538736 -38.465686 1.767993 -1.446932 33.215962 -3.523624 -12.070159 -15.054728 -179.159300 -0.000000 -5.484599
1.505036 16.440637 -1.192285 8.641349 80.481650 16.023386 -12.537817 5.790176 0.187048 0.204301 15.345992 -6.146161 0.002619 2.954851 49.009126 0.955689 -9.187823 23.185939 -4.940800 -0.000000 -73.148400 7.754344 -0.880006 3.068936 18.911476 2.594045 -38.537104 1.715970 -1.643719 35.339582 -3.559173 -11.984303 -16.289301 -178.806400 0.000000 -7.169700
1.623150 16.390527 -1.151606 5.975999 80.391529 13.146340 -12.534379 5.594227 -0.011484 0.919760 15.287160 -7.468518 0.196672 3.144252 52.281070 1.082672 -6.929499 22.772722 -3.912701 -0.000000 -69.142800 7.800677 -0.854143 2.859192 19.478485 2.573043 -38.454321 1.681300 -1.816429 37.250757 -3.599193 -11.902997 -17.594524 -178.438200 0.000000 -8.684900
1.735747 16.339928 -1.110517 3.470227 80.286458 10.404180 -12.522439 5.377522 -0.222053 1.573582 15.162944 -8.796066 0.401936 3.344583 55.519134 1.225352 -4.168749 21.926288 -2.638800 -0.000001 -65.003600 7.849080 -0.831046 2.627890 20.044453 2.484238 -38.232458 1.662282 -1.966787 38.947764 -3.644256 -11.833842 -18.934165 -178.063900 0.000000 -10.017400
1.843945 16.289812 -1.068764 1.167746 80.161856 7.852676 -12.506553 5.145756 -0.434301 2.158399 14.971200 -10.133419 0.615161 3.551613 58.676500 1.386977 -1.066043 20.648498 -1.250201 0.000000 -60.712100 7.897386 -0.812415 2.384058 20.597854 2.342724 -37.896832 1.655829 -2.096820 40.438639 -3.693538 -11.779608 -20.269613 -177.693200 0.000000 -11.162899
1.948914 16.241295 -1.026294 -0.925971 80.010787 5.512788 -12.490088 4.904204 -0.638720 2.674496 14.713343 -11.486650 0.831738 3.760428 61.705203 1.567504 2.190155 18.971529 0.107400 0.000001 -56.287700 7.943316 -0.799484 2.138469 21.132779 2.174647 -37.475000 1.658706 -2.208684 41.734953 -3.746066 -11.742977 -21.562945 -177.334900 0.000001 -12.129300
2.051711 16.195434 -0.983091 -2.801031 79.823992 3.409714 -12.475547 4.658059 -0.826235 3.122273 14.392246 -12.861740 1.046375 3.965661 64.560392 1.762483 5.408881 16.953514 1.300800 0.000001 -51.758400 7.984692 -0.792897 1.902503 21.643399 2.009661 -36.996437 1.667740 -2.304558 42.852481 -3.799914 -11.721819 -22.781205 -176.997201 -0.000000 -12.937400
2.153283 16.153237 -0.939156 -4.413909 79.591005 1.602289 -12.464982 4.412521 -0.988335 3.497206 14.010343 -14.264247 1.253245 4.161667 67.201165 1.963449 8.419976 14.677113 2.230900 -0.000000 -47.196800 8.019582 -0.792074 1.686665 22.120016 1.875993 -36.491868 1.679791 -2.386320 43.812042 -3.852343 -11.708149 -23.901213 -176.687099 -0.000001 -13.617100
2.254411 16.115607 -0.894690 -5.765786 79.300187 0.102909 -12.459138 4.170675 -1.120208 3.804691 13.575880 -15.695909 1.446567 4.343478 69.595185 2.158258 11.082570 12.232598 2.841999 -0.000000 -42.664200 8.045613 -0.796818 1.499991 22.562131 1.804763 -35.982929 1.693173 -2.455736 44.629346 -3.901106 -11.694381 -24.906825 -176.410200 0.000001 -14.201900
2.355652 16.083264 -0.849646 -6.793590 78.940853 -1.016233 -12.458586 3.936498 -1.216948 4.036853 13.094027 -17.156295 1.620292 4.506518 71.715225 2.333934 13.301885 9.716371 3.128100 0.000000 -38.285400 8.061638 -0.805075 1.348943 22.957986 1.814520 -35.490627 1.705982 -2.513759 45.324894 -3.942909 -11.665409 -25.793658 -176.171000 0.000000 -14.724200
2.457306 16.056749 -0.804067 -7.466910 78.504191 -1.720354 -12.462772 3.712118 -1.277767 4.190738 12.573882 -18.638199 1.768813 4.647519 73.542527 2.477591 15.019836 7.208935 3.120001 -0.000000 -34.115101 8.066883 -0.815172 1.236680 23.299991 1.918463 -35.024350 1.717645 -2.561142 45.912760 -3.975135 -11.607326 -26.565164 -175.972500 0.000000 -15.209200
2.559519 16.036487 -0.758148 -7.818250 77.984922 -2.041789 -12.469860 3.496747 -1.304318 4.274136 12.025357 -20.129558 1.887420 4.763643 75.062294 2.579157 16.214269 4.788329 2.878800 -0.000000 -30.308200 8.060555 -0.827059 1.163788 23.589744 2.124635 -34.580586 1.729314 -2.598549 46.395367 -3.996388 -11.510922 -27.227903 -175.815800 0.000000 -15.671500
2.662229 16.022628 -0.711688 -7.840955 77.381210 -1.979980 -12.477851 3.290621 -1.300095 4.283610 11.456392 -21.613561 1.971928 4.853603 76.266687 2.631455 16.892928 2.497425 2.475100 -0.000001 -26.824800 8.043871 -0.839532 1.126430 23.817888 2.424445 -34.151685 1.741869 -2.626251 46.777301 -4.004724 -11.364036 -27.795649 -175.701000 -0.000000 -16.116900
2.765213 16.015273 -0.664627 -7.581781 76.695783 -1.591314 -12.483725 3.091642 -1.270182 4.224439 10.873279 -23.069426 2.019585 4.916236 77.149998 2.632325 17.091547 0.376943 1.984100 -0.000000 -23.726200 8.018237 -0.852899 1.118545 23.983199 2.805003 -33.720342 1.757427 -2.644541 47.051984 -3.999469 -11.160913 -28.281170 -175.627000 0.000000 -16.539699
2.868270 16.014396 -0.616792 -7.113304 75.936345 -0.958384 -12.484083 2.896994 -1.218458 4.106290 10.279717 -24.480068 2.029384 4.950468 77.711455 2.584419 16.869204 -1.541695 1.473900 -0.000000 -21.076400 7.985251 -0.868668 1.134368 24.089238 3.249797 -33.266433 1.778399 -2.653419 47.206511 -3.981194 -10.902322 -28.694741 -175.591000 -0.000000 -16.924700
2.971173 16.019980 -0.567843 -6.483626 75.112921 -0.140793 -12.475195 2.704298 -1.150753 3.933564 9.677969 -25.827036 2.001392 4.956391 77.953654 2.494744 16.305570 -3.250401 0.994500 -0.000000 -18.818900 7.947975 -0.886782 1.164665 24.134948 3.734523 -32.769071 1.806689 -2.652572 47.228200 -3.950153 -10.589243 -29.045638 -175.590400 0.000000 -17.252600
3.073726 16.031956 -0.517473 -5.751665 74.238786 0.792307 -12.453443 2.511121 -1.070346 3.714525 9.068014 -27.097389 1.937699 4.933772 77.882348 2.374761 15.498593 -4.739903 0.580600 -0.000000 -16.968400 7.909110 -0.907840 1.202634 24.123919 4.237054 -32.209689 1.843967 -2.641227 47.100492 -3.907642 -10.228492 -29.338247 -175.621699 -0.000000 -17.500800
3.175885 16.050339 -0.465318 -4.959955 73.329185 1.790033 -12.415478 2.315689 -0.980062 3.454767 8.448925 -28.282009 1.841810 4.882901 77.506842 2.238681 14.556831 -6.013612 0.247500 -0.000000 -15.504400 7.871598 -0.931682 1.241888 24.058734 4.735564 -31.572992 1.891181 -2.618243 46.807698 -3.854795 -9.827854 -29.572673 -175.682000 -0.000000 -17.648900
3.277661 16.075145 -0.410989 -4.137705 72.399295 2.816672 -12.358521 2.117040 -0.881472 3.158944 7.819227 -29.375299 1.718376 4.804287 76.838563 2.101928 13.591899 -7.084280 -0.005200 -0.000000 -14.389600 7.838202 -0.957658 1.277943 23.940733 5.211430 -30.849004 1.948603 -2.582133 46.335576 -3.792539 -9.395245 -29.745372 -175.768899 -0.000000 -17.683400
3.379211 16.106442 -0.354148 -3.302637 71.463869 3.851170 -12.280310 1.915074 -0.775796 2.829439 7.177313 -30.374211 1.572648 4.698868 75.890333 1.979147 12.707738 -7.973590 -0.189600 -0.000000 -13.571600 7.811478 -0.984553 1.307664 23.770253 5.650061 -30.032567 2.015874 -2.531253 45.672157 -3.721432 -8.937837 -29.849929 -175.880400 -0.000001 -17.600499
3.480741 16.144308 -0.294470 -2.460584 70.536082 4.884783 -12.179329 1.710777 -0.663360 2.467503 6.522029 -31.276611 1.410038 4.567770 74.675527 1.882798 11.992691 -8.709379 -0.323300 0.000000 -12.988300 7.793790 -1.011033 1.330182 23.545771 6.041731 -29.122678 2.091972 -2.463969 44.809147 -3.641435 -8.460802 -29.878186 -176.015300 -0.000000 -17.408600
3.582513 16.188726 -0.231715 -1.612030 69.626188 5.915536 -12.054803 1.506203 -0.543930 2.073137 5.853111 -32.080585 1.235644 4.412337 73.206818 1.822052 11.511304 -9.322209 -0.425100 -0.000000 -12.574300 7.787239 -1.035754 1.346768 23.264538 6.382229 -28.122248 2.175339 -2.378739 43.741721 -3.552063 -7.967569 -29.821169 -176.172801 -0.000000 -17.127000
3.684803 16.239632 -0.165715 -0.755021 68.741392 6.946349 -11.906364 1.303766 -0.417877 1.646130 5.171848 -32.784702 1.053996 4.234288 71.495237 1.802646 11.301687 -9.840018 -0.511200 -0.000000 -12.266500 7.793808 -1.057098 1.359519 22.923856 6.672577 -27.036900 2.263955 -2.274309 42.468753 -3.452586 -7.460477 -29.670240 -176.352000 -0.000001 -16.783500
3.787887 16.296802 -0.096386 0.114589 67.885716 7.981325 -11.734526 1.106746 -0.285046 1.185942 4.481995 -33.386491 0.869022 4.035347 69.550669 1.826819 11.373662 -10.285353 -0.593500 0.000000 -12.006500 7.815302 -1.074021 1.372549 22.520756 6.918302 -25.874015 2.355229 -2.149826 40.993888 -3.342149 -6.941247 -29.417673 -176.551601 -0.000000 -16.409700
3.892031 16.359839 -0.023764 0.996282 67.059836 9.021334 -11.540259 0.918271 -0.146341 0.692688 3.790817 -33.884435 0.683940 3.817532 67.381410 1.893551 11.710383 -10.672375 -0.678400 0.000000 -11.741200 7.853199 -1.085694 1.390206 22.054806 7.129102 -24.641143 2.446267 -2.004935 39.323835 -3.220157 -6.412407 -29.056829 -176.769500 -0.000000 -16.035400
3.997427 16.428137 0.052009 1.888668 66.261811 10.066600 -11.324943 0.741467 -0.003605 0.166019 3.108266 -34.276773 0.501270 3.583016 64.995226 1.998758 12.272072 -11.005904 -0.767000 -0.000000 -11.426300 7.909111 -1.091588 1.416441 21.526460 7.315726 -23.346812 2.533780 -1.840021 37.469953 -3.086308 -5.877351 -28.582998 -177.003100 -0.000000 -15.685200
4.104300 16.500916 0.130655 2.783597 65.487416 11.109908 -11.090930 0.579448 0.141016 -0.392689 2.448565 -34.563000 0.322887 3.334125 62.400418 2.135288 12.999877 -11.281250 -0.855200 0.000000 -11.030300 7.983898 -1.092219 1.455350 20.940473 7.490036 -21.998250 2.614313 -1.656224 35.447250 -2.940939 -5.341619 -27.992616 -177.248400 0.000000 -15.374100
4.212774 16.577136 0.211699 3.663666 64.730552 12.133952 -10.841790 0.435111 0.284704 -0.978834 1.830484 -34.744494 0.149934 3.073663 59.608282 2.292903 13.820287 -11.486388 -0.934100 -0.000001 -10.542100 8.077075 -1.088942 1.510565 20.307642 7.664961 -20.600722 2.684509 -1.455433 33.273187 -2.785518 -4.814684 -27.283521 -177.500500 -0.000000 -15.106800
4.323023 16.655652 0.294532 4.504545 63.984021 13.115879 -10.582288 0.310984 0.424010 -1.585744 1.276798 -34.825949 -0.017386 2.804914 56.633173 2.458929 14.652987 -11.602732 -0.991000 0.000000 -9.980100 8.186697 -1.083795 1.584671 19.643829 7.852765 -19.159292 2.741450 -1.240261 30.967703 -2.622186 -4.307681 -26.454203 -177.753800 -0.000000 -14.877400
